<svg width="126" height="25" viewBox="0 0 126 25" fill="none" xmlns="http://www.w3.org/2000/svg">
<path d="M9.184 2.23062C10.192 2.23062 11.2373 2.36129 12.32 2.62262C13.4027 2.88396 14.3547 3.34129 15.176 3.99462L12.488 7.27062C12.04 6.87862 11.5267 6.59862 10.948 6.43062C10.3693 6.24396 9.78133 6.13196 9.184 6.09462V10.5466L11.872 11.3306C13.104 11.704 14.084 12.32 14.812 13.1786C15.5587 14.0186 15.932 15.092 15.932 16.3986C15.932 17.388 15.7547 18.256 15.4 19.0026C15.0453 19.7493 14.56 20.384 13.944 20.9066C13.328 21.4293 12.6093 21.84 11.788 22.1386C10.9667 22.4373 10.0987 22.6333 9.184 22.7266V24.6866H7.336V22.7266C6.104 22.7266 4.872 22.5586 3.64 22.2226C2.42667 21.8866 1.35333 21.2986 0.42 20.4586L3.388 17.1266C3.87333 17.724 4.46133 18.1533 5.152 18.4146C5.84267 18.6573 6.57067 18.8066 7.336 18.8626V14.1306L5.292 13.5146C3.87333 13.0666 2.79067 12.4413 2.044 11.6386C1.316 10.8173 0.952 9.69729 0.952 8.27862C0.952 7.40129 1.12933 6.60796 1.484 5.89862C1.83867 5.18929 2.30533 4.58262 2.884 4.07862C3.48133 3.57462 4.16267 3.16396 4.928 2.84662C5.712 2.52929 6.51467 2.32396 7.336 2.23062V0.270624H9.184V2.23062ZM7.336 6.17862C6.81333 6.29062 6.34667 6.48662 5.936 6.76662C5.52533 7.04662 5.32 7.48529 5.32 8.08262C5.32 8.51196 5.404 8.84796 5.572 9.09062C5.74 9.33329 5.936 9.52929 6.16 9.67862C6.384 9.80929 6.608 9.90262 6.832 9.95862C7.056 10.0146 7.224 10.0613 7.336 10.0986V6.17862ZM9.184 18.8066C9.464 18.7506 9.744 18.676 10.024 18.5826C10.3227 18.4706 10.584 18.3306 10.808 18.1626C11.032 17.9946 11.2093 17.7986 11.34 17.5746C11.4893 17.332 11.564 17.052 11.564 16.7346C11.564 16.436 11.508 16.184 11.396 15.9786C11.3027 15.7733 11.172 15.6053 11.004 15.4746C10.836 15.3253 10.64 15.204 10.416 15.1106C10.192 14.9986 9.95867 14.896 9.716 14.8026L9.184 14.6066V18.8066ZM25.1103 15.3066C24.8863 15.3626 24.6623 15.4093 24.4383 15.4466C24.2143 15.484 23.981 15.5026 23.7383 15.5026C22.805 15.5026 21.9556 15.3346 21.1903 14.9986C20.425 14.6626 19.7716 14.2053 19.2303 13.6266C18.689 13.048 18.269 12.3666 17.9703 11.5826C17.6716 10.78 17.5223 9.93062 17.5223 9.03462C17.5223 8.00796 17.709 7.08396 18.0823 6.26262C18.4743 5.42262 18.997 4.70396 19.6503 4.10662C20.3223 3.50929 21.1063 3.05196 22.0023 2.73462C22.8983 2.39862 23.869 2.23062 24.9143 2.23062C25.941 2.23062 26.9023 2.39862 27.7983 2.73462C28.713 3.05196 29.497 3.50929 30.1503 4.10662C30.8223 4.70396 31.345 5.42262 31.7183 6.26262C32.1103 7.08396 32.3063 8.00796 32.3063 9.03462C32.3063 9.74396 32.241 10.3973 32.1103 10.9946C31.9796 11.5733 31.8023 12.124 31.5783 12.6466C31.373 13.1693 31.121 13.6733 30.8223 14.1586C30.5423 14.6253 30.2436 15.1106 29.9263 15.6146L25.5863 22.3906H20.4623L25.1103 15.3066ZM21.7223 9.20262C21.7223 10.0986 22.0116 10.8453 22.5903 11.4426C23.1876 12.0213 23.9623 12.3106 24.9143 12.3106C25.8663 12.3106 26.6316 12.0213 27.2103 11.4426C27.8076 10.8453 28.1063 10.0986 28.1063 9.20262C28.1063 8.30662 27.8076 7.56929 27.2103 6.99062C26.6316 6.39329 25.8663 6.09462 24.9143 6.09462C23.9623 6.09462 23.1876 6.39329 22.5903 6.99062C22.0116 7.56929 21.7223 8.30662 21.7223 9.20262ZM34.7086 19.9826C34.7086 19.628 34.774 19.292 34.9046 18.9746C35.0353 18.6573 35.2126 18.3866 35.4366 18.1626C35.6793 17.92 35.9593 17.7333 36.2766 17.6026C36.594 17.472 36.93 17.4066 37.2846 17.4066C37.6393 17.4066 37.9753 17.472 38.2926 17.6026C38.61 17.7333 38.8806 17.92 39.1046 18.1626C39.3473 18.3866 39.534 18.6573 39.6646 18.9746C39.7953 19.292 39.8606 19.628 39.8606 19.9826C39.8606 20.3373 39.7953 20.6733 39.6646 20.9906C39.534 21.308 39.3473 21.588 39.1046 21.8306C38.8806 22.0546 38.61 22.232 38.2926 22.3626C37.9753 22.4933 37.6393 22.5586 37.2846 22.5586C36.93 22.5586 36.594 22.4933 36.2766 22.3626C35.9593 22.232 35.6793 22.0546 35.4366 21.8306C35.2126 21.588 35.0353 21.308 34.9046 20.9906C34.774 20.6733 34.7086 20.3373 34.7086 19.9826ZM49.9658 15.3066C49.7418 15.3626 49.5178 15.4093 49.2938 15.4466C49.0698 15.484 48.8364 15.5026 48.5938 15.5026C47.6604 15.5026 46.8111 15.3346 46.0458 14.9986C45.2804 14.6626 44.6271 14.2053 44.0858 13.6266C43.5444 13.048 43.1244 12.3666 42.8258 11.5826C42.5271 10.78 42.3778 9.93062 42.3778 9.03462C42.3778 8.00796 42.5644 7.08396 42.9378 6.26262C43.3298 5.42262 43.8524 4.70396 44.5058 4.10662C45.1778 3.50929 45.9618 3.05196 46.8578 2.73462C47.7538 2.39862 48.7244 2.23062 49.7698 2.23062C50.7964 2.23062 51.7578 2.39862 52.6538 2.73462C53.5684 3.05196 54.3524 3.50929 55.0058 4.10662C55.6778 4.70396 56.2004 5.42262 56.5738 6.26262C56.9658 7.08396 57.1618 8.00796 57.1618 9.03462C57.1618 9.74396 57.0964 10.3973 56.9658 10.9946C56.8351 11.5733 56.6578 12.124 56.4338 12.6466C56.2284 13.1693 55.9764 13.6733 55.6778 14.1586C55.3978 14.6253 55.0991 15.1106 54.7818 15.6146L50.4418 22.3906H45.3178L49.9658 15.3066ZM46.5778 9.20262C46.5778 10.0986 46.8671 10.8453 47.4458 11.4426C48.0431 12.0213 48.8178 12.3106 49.7698 12.3106C50.7218 12.3106 51.4871 12.0213 52.0658 11.4426C52.6631 10.8453 52.9618 10.0986 52.9618 9.20262C52.9618 8.30662 52.6631 7.56929 52.0658 6.99062C51.4871 6.39329 50.7218 6.09462 49.7698 6.09462C48.8178 6.09462 48.0431 6.39329 47.4458 6.99062C46.8671 7.56929 46.5778 8.30662 46.5778 9.20262ZM66.5361 15.3066C66.3121 15.3626 66.0881 15.4093 65.8641 15.4466C65.6401 15.484 65.4068 15.5026 65.1641 15.5026C64.2308 15.5026 63.3814 15.3346 62.6161 14.9986C61.8508 14.6626 61.1974 14.2053 60.6561 13.6266C60.1148 13.048 59.6948 12.3666 59.3961 11.5826C59.0974 10.78 58.9481 9.93062 58.9481 9.03462C58.9481 8.00796 59.1348 7.08396 59.5081 6.26262C59.9001 5.42262 60.4228 4.70396 61.0761 4.10662C61.7481 3.50929 62.5321 3.05196 63.4281 2.73462C64.3241 2.39862 65.2948 2.23062 66.3401 2.23062C67.3668 2.23062 68.3281 2.39862 69.2241 2.73462C70.1388 3.05196 70.9228 3.50929 71.5761 4.10662C72.2481 4.70396 72.7708 5.42262 73.1441 6.26262C73.5361 7.08396 73.7321 8.00796 73.7321 9.03462C73.7321 9.74396 73.6668 10.3973 73.5361 10.9946C73.4054 11.5733 73.2281 12.124 73.0041 12.6466C72.7988 13.1693 72.5468 13.6733 72.2481 14.1586C71.9681 14.6253 71.6694 15.1106 71.3521 15.6146L67.0121 22.3906H61.8881L66.5361 15.3066ZM63.1481 9.20262C63.1481 10.0986 63.4374 10.8453 64.0161 11.4426C64.6134 12.0213 65.3881 12.3106 66.3401 12.3106C67.2921 12.3106 68.0574 12.0213 68.6361 11.4426C69.2334 10.8453 69.5321 10.0986 69.5321 9.20262C69.5321 8.30662 69.2334 7.56929 68.6361 6.99062C68.0574 6.39329 67.2921 6.09462 66.3401 6.09462C65.3881 6.09462 64.6134 6.39329 64.0161 6.99062C63.4374 7.56929 63.1481 8.30662 63.1481 9.20262Z" fill="#F9F9F9"/>
<path d="M75.5744 22.6786L74.6464 22.3746L79.4944 10.7746L80.4064 11.0946L75.5744 22.6786ZM81.6403 16.5666C81.6403 16.2893 81.6296 16.012 81.6083 15.7346C81.5976 15.4573 81.5816 15.18 81.5603 14.9026H82.6963V16.0386H82.7283C82.9843 15.6013 83.3363 15.2706 83.7843 15.0466C84.2429 14.8226 84.6963 14.7106 85.1443 14.7106C85.3469 14.7106 85.5603 14.732 85.7843 14.7746C86.0189 14.8173 86.2429 14.8973 86.4563 15.0146C86.6696 15.1213 86.8669 15.276 87.0483 15.4786C87.2403 15.6813 87.4003 15.9426 87.5283 16.2626C87.7416 15.7826 88.0776 15.404 88.5363 15.1266C89.0056 14.8493 89.4909 14.7106 89.9923 14.7106C90.9523 14.7106 91.6616 14.9666 92.1203 15.4786C92.5789 15.98 92.8083 16.7 92.8083 17.6386V22.3906H91.7523V18.0226C91.7523 17.2653 91.6189 16.684 91.3523 16.2786C91.0856 15.8733 90.5896 15.6706 89.8643 15.6706C89.4696 15.6706 89.1389 15.7506 88.8723 15.9106C88.6056 16.06 88.3869 16.2626 88.2163 16.5186C88.0563 16.7746 87.9389 17.068 87.8643 17.3986C87.7896 17.7186 87.7523 18.0546 87.7523 18.4066V22.3906H86.6963V18.0226C86.6963 17.2653 86.5629 16.684 86.2963 16.2786C86.0296 15.8733 85.5336 15.6706 84.8083 15.6706C84.7443 15.6706 84.5949 15.692 84.3603 15.7346C84.1363 15.7773 83.9016 15.8946 83.6563 16.0866C83.4109 16.2786 83.1869 16.5666 82.9843 16.9506C82.7923 17.3346 82.6963 17.868 82.6963 18.5506V22.3906H81.6403V16.5666ZM101.681 18.6466C101.681 18.2306 101.612 17.8413 101.473 17.4786C101.345 17.116 101.159 16.8013 100.913 16.5346C100.668 16.268 100.369 16.06 100.017 15.9106C99.6759 15.7506 99.2866 15.6706 98.8493 15.6706C98.4119 15.6706 98.0173 15.7506 97.6653 15.9106C97.3239 16.06 97.0306 16.268 96.7853 16.5346C96.5506 16.8013 96.3639 17.116 96.2253 17.4786C96.0973 17.8413 96.0333 18.2306 96.0333 18.6466C96.0333 19.0626 96.0973 19.452 96.2253 19.8146C96.3639 20.1773 96.5506 20.492 96.7853 20.7586C97.0306 21.0253 97.3239 21.2386 97.6653 21.3986C98.0173 21.548 98.4119 21.6226 98.8493 21.6226C99.2866 21.6226 99.6759 21.548 100.017 21.3986C100.369 21.2386 100.668 21.0253 100.913 20.7586C101.159 20.492 101.345 20.1773 101.473 19.8146C101.612 19.452 101.681 19.0626 101.681 18.6466ZM102.833 18.6466C102.833 19.212 102.732 19.7346 102.529 20.2146C102.337 20.6946 102.065 21.1106 101.713 21.4626C101.361 21.8146 100.94 22.092 100.449 22.2946C99.9693 22.4866 99.4359 22.5826 98.8493 22.5826C98.2733 22.5826 97.7399 22.4866 97.2493 22.2946C96.7693 22.092 96.3533 21.8146 96.0013 21.4626C95.6493 21.1106 95.3719 20.6946 95.1693 20.2146C94.9773 19.7346 94.8813 19.212 94.8813 18.6466C94.8813 18.0813 94.9773 17.5586 95.1693 17.0786C95.3719 16.5986 95.6493 16.1826 96.0013 15.8306C96.3533 15.4786 96.7693 15.2066 97.2493 15.0146C97.7399 14.812 98.2733 14.7106 98.8493 14.7106C99.4359 14.7106 99.9693 14.812 100.449 15.0146C100.94 15.2066 101.361 15.4786 101.713 15.8306C102.065 16.1826 102.337 16.5986 102.529 17.0786C102.732 17.5586 102.833 18.0813 102.833 18.6466ZM105.758 14.9026C105.779 15.1053 105.79 15.308 105.79 15.5106C105.8 15.7026 105.806 15.9 105.806 16.1026H105.838C105.955 15.9 106.104 15.7133 106.286 15.5426C106.467 15.372 106.67 15.228 106.894 15.1106C107.118 14.9826 107.352 14.8866 107.598 14.8226C107.854 14.748 108.104 14.7106 108.35 14.7106C109.31 14.7106 110.019 14.9666 110.478 15.4786C110.936 15.98 111.166 16.7 111.166 17.6386V22.3906H110.11V18.2466C110.11 17.4146 109.966 16.78 109.678 16.3426C109.39 15.8946 108.856 15.6706 108.078 15.6706C108.024 15.6706 107.875 15.692 107.63 15.7346C107.384 15.7773 107.123 15.8946 106.846 16.0866C106.579 16.2786 106.339 16.5666 106.126 16.9506C105.912 17.3346 105.806 17.868 105.806 18.5506V22.3906H104.75V16.5506C104.75 16.348 104.739 16.092 104.718 15.7826C104.707 15.4733 104.691 15.18 104.67 14.9026H105.758ZM117.512 15.8626H115.352V20.2786C115.352 20.556 115.379 20.7853 115.432 20.9666C115.486 21.1373 115.56 21.2706 115.656 21.3666C115.752 21.4626 115.864 21.532 115.992 21.5746C116.131 21.6066 116.28 21.6226 116.44 21.6226C116.622 21.6226 116.808 21.596 117 21.5426C117.192 21.4893 117.368 21.42 117.528 21.3346L117.576 22.3106C117.182 22.492 116.707 22.5826 116.152 22.5826C115.95 22.5826 115.736 22.556 115.512 22.5026C115.299 22.4493 115.102 22.348 114.92 22.1986C114.739 22.0493 114.59 21.8466 114.472 21.5906C114.355 21.3346 114.296 20.9986 114.296 20.5826V15.8626H112.712V14.9026H114.296V12.7906H115.352V14.9026H117.512V15.8626ZM118.953 10.2946H120.009V16.1026H120.041C120.158 15.9 120.307 15.7133 120.489 15.5426C120.67 15.372 120.873 15.228 121.097 15.1106C121.321 14.9826 121.555 14.8866 121.801 14.8226C122.057 14.748 122.307 14.7106 122.553 14.7106C123.513 14.7106 124.222 14.9666 124.681 15.4786C125.139 15.98 125.369 16.7 125.369 17.6386V22.3906H124.313V18.2466C124.313 17.4146 124.169 16.78 123.881 16.3426C123.593 15.8946 123.059 15.6706 122.281 15.6706C122.227 15.6706 122.078 15.692 121.833 15.7346C121.587 15.7773 121.326 15.8946 121.049 16.0866C120.782 16.2786 120.542 16.5666 120.329 16.9506C120.115 17.3346 120.009 17.868 120.009 18.5506V22.3906H118.953V10.2946Z" fill="#C0C0C0"/>
</svg>
