<svg width="142" height="25" viewBox="0 0 142 25" fill="none" xmlns="http://www.w3.org/2000/svg">
<path d="M9.184 2.23062C10.192 2.23062 11.2373 2.36129 12.32 2.62262C13.4027 2.88396 14.3547 3.34129 15.176 3.99462L12.488 7.27062C12.04 6.87862 11.5267 6.59862 10.948 6.43062C10.3693 6.24396 9.78133 6.13196 9.184 6.09462V10.5466L11.872 11.3306C13.104 11.704 14.084 12.32 14.812 13.1786C15.5587 14.0186 15.932 15.092 15.932 16.3986C15.932 17.388 15.7547 18.256 15.4 19.0026C15.0453 19.7493 14.56 20.384 13.944 20.9066C13.328 21.4293 12.6093 21.84 11.788 22.1386C10.9667 22.4373 10.0987 22.6333 9.184 22.7266V24.6866H7.336V22.7266C6.104 22.7266 4.872 22.5586 3.64 22.2226C2.42667 21.8866 1.35333 21.2986 0.42 20.4586L3.388 17.1266C3.87333 17.724 4.46133 18.1533 5.152 18.4146C5.84267 18.6573 6.57067 18.8066 7.336 18.8626V14.1306L5.292 13.5146C3.87333 13.0666 2.79067 12.4413 2.044 11.6386C1.316 10.8173 0.952 9.69729 0.952 8.27862C0.952 7.40129 1.12933 6.60796 1.484 5.89862C1.83867 5.18929 2.30533 4.58262 2.884 4.07862C3.48133 3.57462 4.16267 3.16396 4.928 2.84662C5.712 2.52929 6.51467 2.32396 7.336 2.23062V0.270624H9.184V2.23062ZM7.336 6.17862C6.81333 6.29062 6.34667 6.48662 5.936 6.76662C5.52533 7.04662 5.32 7.48529 5.32 8.08262C5.32 8.51196 5.404 8.84796 5.572 9.09062C5.74 9.33329 5.936 9.52929 6.16 9.67862C6.384 9.80929 6.608 9.90262 6.832 9.95862C7.056 10.0146 7.224 10.0613 7.336 10.0986V6.17862ZM9.184 18.8066C9.464 18.7506 9.744 18.676 10.024 18.5826C10.3227 18.4706 10.584 18.3306 10.808 18.1626C11.032 17.9946 11.2093 17.7986 11.34 17.5746C11.4893 17.332 11.564 17.052 11.564 16.7346C11.564 16.436 11.508 16.184 11.396 15.9786C11.3027 15.7733 11.172 15.6053 11.004 15.4746C10.836 15.3253 10.64 15.204 10.416 15.1106C10.192 14.9986 9.95867 14.896 9.716 14.8026L9.184 14.6066V18.8066ZM24.6343 7.27062L20.6583 10.7706L18.2783 8.02662L24.7463 2.56662H28.6663V22.3906H24.6343V7.27062ZM34.5126 17.9386L42.2126 11.0226C42.6046 10.668 42.9966 10.2666 43.3886 9.81862C43.7806 9.37062 43.9766 8.84796 43.9766 8.25063C43.9766 7.57862 43.734 7.05596 43.2486 6.68262C42.7633 6.29062 42.194 6.09462 41.5406 6.09462C40.7566 6.09462 40.1406 6.33729 39.6926 6.82262C39.2633 7.30796 39.0206 7.90529 38.9646 8.61462L34.7646 8.30662C34.8206 7.27996 35.0353 6.39329 35.4086 5.64662C35.782 4.88129 36.2766 4.24662 36.8926 3.74262C37.5086 3.23862 38.2273 2.86529 39.0486 2.62262C39.8886 2.36129 40.794 2.23062 41.7646 2.23062C42.6606 2.23062 43.5006 2.36129 44.2846 2.62262C45.0686 2.86529 45.75 3.23862 46.3286 3.74262C46.9073 4.22796 47.3553 4.84396 47.6726 5.59062C48.0086 6.33729 48.1766 7.20529 48.1766 8.19462C48.1766 8.82929 48.1113 9.40796 47.9806 9.93062C47.85 10.4346 47.6633 10.9013 47.4206 11.3306C47.1966 11.7413 46.926 12.124 46.6086 12.4786C46.2913 12.8333 45.946 13.1786 45.5726 13.5146L39.5526 18.6946H48.3446V22.3906H34.5126V17.9386ZM51.2789 19.9826C51.2789 19.628 51.3443 19.292 51.4749 18.9746C51.6056 18.6573 51.7829 18.3866 52.0069 18.1626C52.2496 17.92 52.5296 17.7333 52.8469 17.6026C53.1643 17.472 53.5003 17.4066 53.8549 17.4066C54.2096 17.4066 54.5456 17.472 54.8629 17.6026C55.1803 17.7333 55.4509 17.92 55.6749 18.1626C55.9176 18.3866 56.1043 18.6573 56.2349 18.9746C56.3656 19.292 56.4309 19.628 56.4309 19.9826C56.4309 20.3373 56.3656 20.6733 56.2349 20.9906C56.1043 21.308 55.9176 21.588 55.6749 21.8306C55.4509 22.0546 55.1803 22.232 54.8629 22.3626C54.5456 22.4933 54.2096 22.5586 53.8549 22.5586C53.5003 22.5586 53.1643 22.4933 52.8469 22.3626C52.5296 22.232 52.2496 22.0546 52.0069 21.8306C51.7829 21.588 51.6056 21.308 51.4749 20.9906C51.3443 20.6733 51.2789 20.3373 51.2789 19.9826ZM66.5361 15.3066C66.3121 15.3626 66.0881 15.4093 65.8641 15.4466C65.6401 15.484 65.4068 15.5026 65.1641 15.5026C64.2308 15.5026 63.3814 15.3346 62.6161 14.9986C61.8508 14.6626 61.1974 14.2053 60.6561 13.6266C60.1148 13.048 59.6948 12.3666 59.3961 11.5826C59.0974 10.78 58.9481 9.93062 58.9481 9.03462C58.9481 8.00796 59.1348 7.08396 59.5081 6.26262C59.9001 5.42262 60.4228 4.70396 61.0761 4.10662C61.7481 3.50929 62.5321 3.05196 63.4281 2.73462C64.3241 2.39862 65.2948 2.23062 66.3401 2.23062C67.3668 2.23062 68.3281 2.39862 69.2241 2.73462C70.1388 3.05196 70.9228 3.50929 71.5761 4.10662C72.2481 4.70396 72.7708 5.42262 73.1441 6.26262C73.5361 7.08396 73.7321 8.00796 73.7321 9.03462C73.7321 9.74396 73.6668 10.3973 73.5361 10.9946C73.4054 11.5733 73.2281 12.124 73.0041 12.6466C72.7988 13.1693 72.5468 13.6733 72.2481 14.1586C71.9681 14.6253 71.6694 15.1106 71.3521 15.6146L67.0121 22.3906H61.8881L66.5361 15.3066ZM63.1481 9.20262C63.1481 10.0986 63.4374 10.8453 64.0161 11.4426C64.6134 12.0213 65.3881 12.3106 66.3401 12.3106C67.2921 12.3106 68.0574 12.0213 68.6361 11.4426C69.2334 10.8453 69.5321 10.0986 69.5321 9.20262C69.5321 8.30662 69.2334 7.56929 68.6361 6.99062C68.0574 6.39329 67.2921 6.09462 66.3401 6.09462C65.3881 6.09462 64.6134 6.39329 64.0161 6.99062C63.4374 7.56929 63.1481 8.30662 63.1481 9.20262ZM83.1064 15.3066C82.8824 15.3626 82.6584 15.4093 82.4344 15.4466C82.2104 15.484 81.9771 15.5026 81.7344 15.5026C80.8011 15.5026 79.9517 15.3346 79.1864 14.9986C78.4211 14.6626 77.7677 14.2053 77.2264 13.6266C76.6851 13.048 76.2651 12.3666 75.9664 11.5826C75.6677 10.78 75.5184 9.93062 75.5184 9.03462C75.5184 8.00796 75.7051 7.08396 76.0784 6.26262C76.4704 5.42262 76.9931 4.70396 77.6464 4.10662C78.3184 3.50929 79.1024 3.05196 79.9984 2.73462C80.8944 2.39862 81.8651 2.23062 82.9104 2.23062C83.9371 2.23062 84.8984 2.39862 85.7944 2.73462C86.7091 3.05196 87.4931 3.50929 88.1464 4.10662C88.8184 4.70396 89.3411 5.42262 89.7144 6.26262C90.1064 7.08396 90.3024 8.00796 90.3024 9.03462C90.3024 9.74396 90.2371 10.3973 90.1064 10.9946C89.9757 11.5733 89.7984 12.124 89.5744 12.6466C89.3691 13.1693 89.1171 13.6733 88.8184 14.1586C88.5384 14.6253 88.2397 15.1106 87.9224 15.6146L83.5824 22.3906H78.4584L83.1064 15.3066ZM79.7184 9.20262C79.7184 10.0986 80.0077 10.8453 80.5864 11.4426C81.1837 12.0213 81.9584 12.3106 82.9104 12.3106C83.8624 12.3106 84.6277 12.0213 85.2064 11.4426C85.8037 10.8453 86.1024 10.0986 86.1024 9.20262C86.1024 8.30662 85.8037 7.56929 85.2064 6.99062C84.6277 6.39329 83.8624 6.09462 82.9104 6.09462C81.9584 6.09462 81.1837 6.39329 80.5864 6.99062C80.0077 7.56929 79.7184 8.30662 79.7184 9.20262Z" fill="#F9F9F9"/>
<path d="M92.1447 22.6786L91.2167 22.3746L96.0647 10.7746L96.9767 11.0946L92.1447 22.6786ZM98.2106 16.5666C98.2106 16.2893 98.1999 16.012 98.1786 15.7346C98.1679 15.4573 98.1519 15.18 98.1306 14.9026H99.2666V16.0386H99.2986C99.5546 15.6013 99.9066 15.2706 100.355 15.0466C100.813 14.8226 101.267 14.7106 101.715 14.7106C101.917 14.7106 102.131 14.732 102.355 14.7746C102.589 14.8173 102.813 14.8973 103.027 15.0146C103.24 15.1213 103.437 15.276 103.619 15.4786C103.811 15.6813 103.971 15.9426 104.099 16.2626C104.312 15.7826 104.648 15.404 105.107 15.1266C105.576 14.8493 106.061 14.7106 106.563 14.7106C107.523 14.7106 108.232 14.9666 108.691 15.4786C109.149 15.98 109.379 16.7 109.379 17.6386V22.3906H108.323V18.0226C108.323 17.2653 108.189 16.684 107.923 16.2786C107.656 15.8733 107.16 15.6706 106.435 15.6706C106.04 15.6706 105.709 15.7506 105.443 15.9106C105.176 16.06 104.957 16.2626 104.787 16.5186C104.627 16.7746 104.509 17.068 104.435 17.3986C104.36 17.7186 104.323 18.0546 104.323 18.4066V22.3906H103.267V18.0226C103.267 17.2653 103.133 16.684 102.867 16.2786C102.6 15.8733 102.104 15.6706 101.379 15.6706C101.315 15.6706 101.165 15.692 100.931 15.7346C100.707 15.7773 100.472 15.8946 100.227 16.0866C99.9813 16.2786 99.7573 16.5666 99.5546 16.9506C99.3626 17.3346 99.2666 17.868 99.2666 18.5506V22.3906H98.2106V16.5666ZM118.252 18.6466C118.252 18.2306 118.182 17.8413 118.044 17.4786C117.916 17.116 117.729 16.8013 117.484 16.5346C117.238 16.268 116.94 16.06 116.588 15.9106C116.246 15.7506 115.857 15.6706 115.42 15.6706C114.982 15.6706 114.588 15.7506 114.236 15.9106C113.894 16.06 113.601 16.268 113.356 16.5346C113.121 16.8013 112.934 17.116 112.796 17.4786C112.668 17.8413 112.604 18.2306 112.604 18.6466C112.604 19.0626 112.668 19.452 112.796 19.8146C112.934 20.1773 113.121 20.492 113.356 20.7586C113.601 21.0253 113.894 21.2386 114.236 21.3986C114.588 21.548 114.982 21.6226 115.42 21.6226C115.857 21.6226 116.246 21.548 116.588 21.3986C116.94 21.2386 117.238 21.0253 117.484 20.7586C117.729 20.492 117.916 20.1773 118.044 19.8146C118.182 19.452 118.252 19.0626 118.252 18.6466ZM119.404 18.6466C119.404 19.212 119.302 19.7346 119.1 20.2146C118.908 20.6946 118.636 21.1106 118.284 21.4626C117.932 21.8146 117.51 22.092 117.02 22.2946C116.54 22.4866 116.006 22.5826 115.42 22.5826C114.844 22.5826 114.31 22.4866 113.82 22.2946C113.34 22.092 112.924 21.8146 112.572 21.4626C112.22 21.1106 111.942 20.6946 111.74 20.2146C111.548 19.7346 111.452 19.212 111.452 18.6466C111.452 18.0813 111.548 17.5586 111.74 17.0786C111.942 16.5986 112.22 16.1826 112.572 15.8306C112.924 15.4786 113.34 15.2066 113.82 15.0146C114.31 14.812 114.844 14.7106 115.42 14.7106C116.006 14.7106 116.54 14.812 117.02 15.0146C117.51 15.2066 117.932 15.4786 118.284 15.8306C118.636 16.1826 118.908 16.5986 119.1 17.0786C119.302 17.5586 119.404 18.0813 119.404 18.6466ZM122.328 14.9026C122.349 15.1053 122.36 15.308 122.36 15.5106C122.371 15.7026 122.376 15.9 122.376 16.1026H122.408C122.525 15.9 122.675 15.7133 122.856 15.5426C123.037 15.372 123.24 15.228 123.464 15.1106C123.688 14.9826 123.923 14.8866 124.168 14.8226C124.424 14.748 124.675 14.7106 124.92 14.7106C125.88 14.7106 126.589 14.9666 127.048 15.4786C127.507 15.98 127.736 16.7 127.736 17.6386V22.3906H126.68V18.2466C126.68 17.4146 126.536 16.78 126.248 16.3426C125.96 15.8946 125.427 15.6706 124.648 15.6706C124.595 15.6706 124.445 15.692 124.2 15.7346C123.955 15.7773 123.693 15.8946 123.416 16.0866C123.149 16.2786 122.909 16.5666 122.696 16.9506C122.483 17.3346 122.376 17.868 122.376 18.5506V22.3906H121.32V16.5506C121.32 16.348 121.309 16.092 121.288 15.7826C121.277 15.4733 121.261 15.18 121.24 14.9026H122.328ZM134.083 15.8626H131.923V20.2786C131.923 20.556 131.949 20.7853 132.003 20.9666C132.056 21.1373 132.131 21.2706 132.227 21.3666C132.323 21.4626 132.435 21.532 132.563 21.5746C132.701 21.6066 132.851 21.6226 133.011 21.6226C133.192 21.6226 133.379 21.596 133.571 21.5426C133.763 21.4893 133.939 21.42 134.099 21.3346L134.147 22.3106C133.752 22.492 133.277 22.5826 132.723 22.5826C132.52 22.5826 132.307 22.556 132.083 22.5026C131.869 22.4493 131.672 22.348 131.491 22.1986C131.309 22.0493 131.16 21.8466 131.043 21.5906C130.925 21.3346 130.867 20.9986 130.867 20.5826V15.8626H129.283V14.9026H130.867V12.7906H131.923V14.9026H134.083V15.8626ZM135.523 10.2946H136.579V16.1026H136.611C136.728 15.9 136.878 15.7133 137.059 15.5426C137.24 15.372 137.443 15.228 137.667 15.1106C137.891 14.9826 138.126 14.8866 138.371 14.8226C138.627 14.748 138.878 14.7106 139.123 14.7106C140.083 14.7106 140.792 14.9666 141.251 15.4786C141.71 15.98 141.939 16.7 141.939 17.6386V22.3906H140.883V18.2466C140.883 17.4146 140.739 16.78 140.451 16.3426C140.163 15.8946 139.63 15.6706 138.851 15.6706C138.798 15.6706 138.648 15.692 138.403 15.7346C138.158 15.7773 137.896 15.8946 137.619 16.0866C137.352 16.2786 137.112 16.5666 136.899 16.9506C136.686 17.3346 136.579 17.868 136.579 18.5506V22.3906H135.523V10.2946Z" fill="#C0C0C0"/>
</svg>
