<svg width="236" height="49" viewBox="0 0 236 49" fill="none" xmlns="http://www.w3.org/2000/svg">
<rect x="2.60938" y="2.89062" width="230.766" height="43" rx="18.5" fill="#2B2D37"/>
<rect x="2.60938" y="2.89062" width="230.766" height="43" rx="18.5" stroke="#2B2D37" stroke-width="5"/>
<rect x="5.10938" y="5.39062" width="135.625" height="38" rx="19" fill="#0063E5"/>
<path d="M23.7155 28.3346H25.9555C26.8195 28.3346 27.5662 28.2066 28.1955 27.9506C28.8355 27.684 29.3635 27.3373 29.7795 26.9106C30.2062 26.4733 30.5208 25.9826 30.7235 25.4386C30.9262 24.884 31.0275 24.3133 31.0275 23.7266C31.0275 23.14 30.9262 22.5746 30.7235 22.0306C30.5208 21.476 30.2062 20.9853 29.7795 20.5586C29.3635 20.1213 28.8355 19.7746 28.1955 19.5186C27.5662 19.252 26.8195 19.1186 25.9555 19.1186H23.7155V28.3346ZM22.5635 18.0626H26.3235C27.0275 18.0626 27.7315 18.18 28.4355 18.4146C29.1502 18.6493 29.7902 19.0066 30.3555 19.4866C30.9315 19.956 31.3955 20.548 31.7475 21.2626C32.0995 21.9666 32.2755 22.788 32.2755 23.7266C32.2755 24.676 32.0995 25.5026 31.7475 26.2066C31.3955 26.9106 30.9315 27.5026 30.3555 27.9826C29.7902 28.452 29.1502 28.804 28.4355 29.0386C27.7315 29.2733 27.0275 29.3906 26.3235 29.3906H22.5635V18.0626ZM35.7349 19.0226C35.7349 19.2466 35.6549 19.4333 35.4949 19.5826C35.3349 19.7213 35.1589 19.7906 34.9669 19.7906C34.7749 19.7906 34.5989 19.7213 34.4389 19.5826C34.2789 19.4333 34.1989 19.2466 34.1989 19.0226C34.1989 18.7986 34.2789 18.6173 34.4389 18.4786C34.5989 18.3293 34.7749 18.2546 34.9669 18.2546C35.1589 18.2546 35.3349 18.3293 35.4949 18.4786C35.6549 18.6173 35.7349 18.7986 35.7349 19.0226ZM35.4949 29.3906H34.4389V21.9026H35.4949V29.3906ZM42.0106 23.6786C41.8506 23.3693 41.6373 23.124 41.3706 22.9426C41.104 22.7613 40.7786 22.6706 40.3946 22.6706C40.2133 22.6706 40.0266 22.692 39.8346 22.7346C39.6533 22.7773 39.488 22.8466 39.3386 22.9426C39.1893 23.028 39.0666 23.14 38.9706 23.2786C38.8853 23.4173 38.8426 23.588 38.8426 23.7906C38.8426 24.1426 38.9653 24.3986 39.2106 24.5586C39.456 24.7186 39.824 24.8573 40.3146 24.9746L41.3866 25.2306C41.9093 25.348 42.3413 25.588 42.6826 25.9506C43.0346 26.3026 43.2106 26.7453 43.2106 27.2786C43.2106 27.684 43.1253 28.036 42.9546 28.3346C42.7946 28.6226 42.576 28.8626 42.2986 29.0546C42.032 29.236 41.7226 29.3693 41.3706 29.4546C41.0186 29.54 40.6613 29.5826 40.2986 29.5826C39.7226 29.5826 39.184 29.476 38.6826 29.2626C38.192 29.0386 37.7706 28.66 37.4186 28.1266L38.3306 27.5026C38.544 27.844 38.8106 28.116 39.1306 28.3186C39.4613 28.5213 39.8506 28.6226 40.2986 28.6226C40.512 28.6226 40.7253 28.6013 40.9386 28.5586C41.152 28.5053 41.3386 28.4306 41.4986 28.3346C41.6693 28.228 41.8026 28.0946 41.8986 27.9346C42.0053 27.7746 42.0586 27.588 42.0586 27.3746C42.0586 27.0013 41.92 26.7346 41.6426 26.5746C41.3653 26.404 41.0293 26.2706 40.6346 26.1746L39.6106 25.9346C39.4826 25.9026 39.3066 25.8493 39.0826 25.7746C38.8693 25.7 38.656 25.588 38.4426 25.4386C38.24 25.2893 38.064 25.0973 37.9146 24.8626C37.7653 24.6173 37.6906 24.3186 37.6906 23.9666C37.6906 23.5826 37.7653 23.2466 37.9146 22.9586C38.0746 22.6706 38.2826 22.436 38.5386 22.2546C38.8053 22.0733 39.104 21.94 39.4346 21.8546C39.7653 21.7586 40.1066 21.7106 40.4586 21.7106C40.9813 21.7106 41.4666 21.812 41.9146 22.0146C42.3626 22.2173 42.7093 22.564 42.9546 23.0546L42.0106 23.6786ZM45.8631 21.9026C45.8845 22.1053 45.8951 22.308 45.8951 22.5106C45.9058 22.7026 45.9111 22.9 45.9111 23.1026H45.9431C46.0605 22.9 46.2098 22.7133 46.3911 22.5426C46.5725 22.372 46.7751 22.228 46.9991 22.1106C47.2231 21.9826 47.4578 21.8866 47.7031 21.8226C47.9591 21.748 48.2098 21.7106 48.4551 21.7106C49.4151 21.7106 50.1245 21.9666 50.5831 22.4786C51.0418 22.98 51.2711 23.7 51.2711 24.6386V29.3906H50.2151V25.2466C50.2151 24.4146 50.0711 23.78 49.7831 23.3426C49.4951 22.8946 48.9618 22.6706 48.1831 22.6706C48.1298 22.6706 47.9805 22.692 47.7351 22.7346C47.4898 22.7773 47.2285 22.8946 46.9511 23.0866C46.6845 23.2786 46.4445 23.5666 46.2311 23.9506C46.0178 24.3346 45.9111 24.868 45.9111 25.5506V29.3906H44.8551V23.5506C44.8551 23.348 44.8445 23.092 44.8231 22.7826C44.8125 22.4733 44.7965 22.18 44.7751 21.9026H45.8631ZM59.5698 25.0706C59.5698 24.356 59.3564 23.78 58.9298 23.3426C58.5031 22.8946 57.9058 22.6706 57.1378 22.6706C56.7964 22.6706 56.4658 22.74 56.1458 22.8786C55.8258 23.0066 55.5431 23.1826 55.2978 23.4066C55.0631 23.6306 54.8711 23.8866 54.7218 24.1746C54.5831 24.4626 54.5138 24.7613 54.5138 25.0706H59.5698ZM54.4818 25.9346C54.5138 26.308 54.6044 26.66 54.7538 26.9906C54.9031 27.3213 55.1004 27.6093 55.3458 27.8546C55.5911 28.0893 55.8738 28.276 56.1938 28.4146C56.5138 28.5533 56.8604 28.6226 57.2338 28.6226C57.7991 28.6226 58.2844 28.4946 58.6898 28.2386C59.1058 27.972 59.4204 27.668 59.6338 27.3266L60.4498 27.9986C60.0018 28.564 59.5058 28.9693 58.9618 29.2146C58.4284 29.46 57.8524 29.5826 57.2338 29.5826C56.6791 29.5826 56.1618 29.4866 55.6818 29.2946C55.2124 29.092 54.8071 28.8146 54.4658 28.4626C54.1244 28.1106 53.8524 27.6946 53.6497 27.2146C53.4578 26.7346 53.3618 26.212 53.3618 25.6466C53.3618 25.0813 53.4578 24.5586 53.6497 24.0786C53.8418 23.5986 54.1084 23.1826 54.4498 22.8306C54.7911 22.4786 55.1911 22.2066 55.6498 22.0146C56.1084 21.812 56.6044 21.7106 57.1378 21.7106C57.7031 21.7106 58.2098 21.812 58.6578 22.0146C59.1058 22.2173 59.4791 22.4893 59.7778 22.8306C60.0871 23.1613 60.3218 23.556 60.4818 24.0146C60.6418 24.4626 60.7218 24.9426 60.7218 25.4546V25.9346H54.4818ZM65.4204 28.0946L67.7084 21.9026H68.9884L65.2444 31.3426C65.0204 31.9186 64.7324 32.3773 64.3804 32.7186C64.039 33.06 63.543 33.2306 62.8924 33.2306C62.7324 33.2306 62.567 33.2253 62.3964 33.2146C62.2364 33.204 62.0764 33.172 61.9164 33.1186L62.0284 32.0946C62.2524 32.212 62.519 32.2706 62.8284 32.2706C63.2017 32.2706 63.495 32.1533 63.7084 31.9186C63.9217 31.684 64.1084 31.3533 64.2684 30.9266L64.8124 29.4866L61.7404 21.9026H63.0684L65.4204 28.0946ZM76.3443 28.3346H78.5523C78.9683 28.3346 79.3576 28.292 79.7203 28.2066C80.0829 28.1213 80.3976 27.9933 80.6643 27.8226C80.9309 27.6413 81.1389 27.4173 81.2883 27.1506C81.4483 26.884 81.5283 26.564 81.5283 26.1906C81.5283 25.444 81.2883 24.8893 80.8083 24.5266C80.3283 24.164 79.6243 23.9826 78.6963 23.9826H76.3443V28.3346ZM76.3443 23.0226H78.6643C78.9416 23.0226 79.2136 22.9906 79.4803 22.9266C79.7576 22.852 80.0029 22.7346 80.2163 22.5746C80.4403 22.4146 80.6216 22.212 80.7603 21.9666C80.8989 21.7106 80.9683 21.4013 80.9683 21.0386C80.9683 20.9213 80.9416 20.756 80.8883 20.5426C80.8456 20.3293 80.7389 20.116 80.5683 19.9026C80.4083 19.6893 80.1683 19.508 79.8483 19.3586C79.5283 19.1986 79.0963 19.1186 78.5523 19.1186H76.3443V23.0226ZM75.1923 18.0626H78.5683C79.0376 18.0626 79.4909 18.1106 79.9283 18.2066C80.3656 18.3026 80.7549 18.4626 81.0963 18.6866C81.4376 18.9106 81.7096 19.204 81.9123 19.5666C82.1149 19.9293 82.2163 20.3773 82.2163 20.9106C82.2163 21.5293 82.0403 22.0626 81.6883 22.5106C81.3469 22.948 80.8563 23.2413 80.2163 23.3906V23.4226C81.0163 23.4866 81.6403 23.7693 82.0883 24.2706C82.5469 24.7613 82.7763 25.4226 82.7763 26.2546C82.7763 26.436 82.7283 26.7026 82.6323 27.0546C82.5469 27.4066 82.3603 27.7586 82.0723 28.1106C81.7843 28.452 81.3683 28.7506 80.8243 29.0066C80.2803 29.2626 79.5549 29.3906 78.6483 29.3906H75.1923V18.0626ZM90.2944 29.3906C90.273 29.188 90.257 28.9906 90.2464 28.7986C90.2464 28.596 90.2464 28.3933 90.2464 28.1906H90.2144C90.097 28.3933 89.9477 28.58 89.7664 28.7506C89.585 28.9213 89.3824 29.0706 89.1584 29.1986C88.9344 29.316 88.6944 29.4066 88.4384 29.4706C88.193 29.5453 87.9477 29.5826 87.7024 29.5826C86.7424 29.5826 86.033 29.332 85.5744 28.8306C85.1157 28.3186 84.8864 27.5933 84.8864 26.6546V21.9026H85.9424V26.0466C85.9424 26.4626 85.9744 26.8306 86.0384 27.1506C86.1024 27.4706 86.209 27.7426 86.3584 27.9666C86.5184 28.18 86.7264 28.3453 86.9824 28.4626C87.249 28.5693 87.5797 28.6226 87.9744 28.6226C88.0277 28.6226 88.177 28.6013 88.4224 28.5586C88.6677 28.516 88.9237 28.3986 89.1904 28.2066C89.4677 28.0146 89.713 27.7266 89.9264 27.3426C90.1397 26.9586 90.2464 26.4253 90.2464 25.7426V21.9026H91.3024V27.7426C91.3024 27.9453 91.3077 28.2013 91.3184 28.5106C91.3397 28.82 91.361 29.1133 91.3824 29.3906H90.2944ZM94.785 21.9026C94.8063 22.1053 94.817 22.308 94.817 22.5106C94.8277 22.7026 94.833 22.9 94.833 23.1026H94.865C94.9823 22.9 95.1317 22.7133 95.313 22.5426C95.4943 22.372 95.697 22.228 95.921 22.1106C96.145 21.9826 96.3797 21.8866 96.625 21.8226C96.881 21.748 97.1317 21.7106 97.377 21.7106C98.337 21.7106 99.0463 21.9666 99.505 22.4786C99.9637 22.98 100.193 23.7 100.193 24.6386V29.3906H99.137V25.2466C99.137 24.4146 98.993 23.78 98.705 23.3426C98.417 22.8946 97.8837 22.6706 97.105 22.6706C97.0517 22.6706 96.9023 22.692 96.657 22.7346C96.4117 22.7773 96.1503 22.8946 95.873 23.0866C95.6063 23.2786 95.3663 23.5666 95.153 23.9506C94.9397 24.3346 94.833 24.868 94.833 25.5506V29.3906H93.777V23.5506C93.777 23.348 93.7663 23.092 93.745 22.7826C93.7343 22.4733 93.7183 22.18 93.697 21.9026H94.785ZM103.308 25.6466C103.308 26.0626 103.372 26.452 103.5 26.8146C103.638 27.1773 103.83 27.492 104.076 27.7586C104.321 28.0253 104.614 28.2386 104.956 28.3986C105.308 28.548 105.702 28.6226 106.14 28.6226C106.566 28.6226 106.961 28.548 107.324 28.3986C107.697 28.2386 108.017 28.0253 108.284 27.7586C108.55 27.492 108.758 27.1773 108.908 26.8146C109.057 26.452 109.132 26.0626 109.132 25.6466C109.132 25.2306 109.057 24.8413 108.908 24.4786C108.758 24.116 108.55 23.8013 108.284 23.5346C108.017 23.268 107.697 23.06 107.324 22.9106C106.961 22.7506 106.566 22.6706 106.14 22.6706C105.702 22.6706 105.308 22.7506 104.956 22.9106C104.614 23.06 104.321 23.268 104.076 23.5346C103.83 23.8013 103.638 24.116 103.5 24.4786C103.372 24.8413 103.308 25.2306 103.308 25.6466ZM110.14 29.3906H109.084V28.1426H109.052C108.881 28.3986 108.678 28.6173 108.444 28.7986C108.209 28.98 107.964 29.1293 107.708 29.2466C107.452 29.364 107.185 29.4493 106.908 29.5026C106.641 29.556 106.385 29.5826 106.14 29.5826C105.553 29.5826 105.014 29.4866 104.524 29.2946C104.044 29.092 103.628 28.8146 103.276 28.4626C102.924 28.1106 102.646 27.6946 102.444 27.2146C102.252 26.7346 102.156 26.212 102.156 25.6466C102.156 25.0813 102.252 24.5586 102.444 24.0786C102.646 23.5986 102.924 23.1826 103.276 22.8306C103.628 22.4786 104.044 22.2066 104.524 22.0146C105.014 21.812 105.553 21.7106 106.14 21.7106C106.385 21.7106 106.641 21.7373 106.908 21.7906C107.185 21.844 107.452 21.9293 107.708 22.0466C107.964 22.164 108.209 22.3133 108.444 22.4946C108.678 22.676 108.881 22.8946 109.052 23.1506H109.084V17.2946H110.14V29.3906ZM113.745 29.3906H112.689V17.2946H113.745V29.3906ZM122.117 25.0706C122.117 24.356 121.903 23.78 121.477 23.3426C121.05 22.8946 120.453 22.6706 119.685 22.6706C119.343 22.6706 119.013 22.74 118.693 22.8786C118.373 23.0066 118.09 23.1826 117.845 23.4066C117.61 23.6306 117.418 23.8866 117.269 24.1746C117.13 24.4626 117.061 24.7613 117.061 25.0706H122.117ZM117.029 25.9346C117.061 26.308 117.151 26.66 117.301 26.9906C117.45 27.3213 117.647 27.6093 117.893 27.8546C118.138 28.0893 118.421 28.276 118.741 28.4146C119.061 28.5533 119.407 28.6226 119.781 28.6226C120.346 28.6226 120.831 28.4946 121.237 28.2386C121.653 27.972 121.967 27.668 122.181 27.3266L122.997 27.9986C122.549 28.564 122.053 28.9693 121.509 29.2146C120.975 29.46 120.399 29.5826 119.781 29.5826C119.226 29.5826 118.709 29.4866 118.229 29.2946C117.759 29.092 117.354 28.8146 117.013 28.4626C116.671 28.1106 116.399 27.6946 116.197 27.2146C116.005 26.7346 115.909 26.212 115.909 25.6466C115.909 25.0813 116.005 24.5586 116.197 24.0786C116.389 23.5986 116.655 23.1826 116.997 22.8306C117.338 22.4786 117.738 22.2066 118.197 22.0146C118.655 21.812 119.151 21.7106 119.685 21.7106C120.25 21.7106 120.757 21.812 121.205 22.0146C121.653 22.2173 122.026 22.4893 122.325 22.8306C122.634 23.1613 122.869 23.556 123.029 24.0146C123.189 24.4626 123.269 24.9426 123.269 25.4546V25.9346H117.029Z" fill="#F9F9F9"/>
<path d="M159.426 28.3346H161.666C162.53 28.3346 163.277 28.2066 163.906 27.9506C164.546 27.684 165.074 27.3373 165.49 26.9106C165.917 26.4733 166.232 25.9826 166.434 25.4386C166.637 24.884 166.738 24.3133 166.738 23.7266C166.738 23.14 166.637 22.5746 166.434 22.0306C166.232 21.476 165.917 20.9853 165.49 20.5586C165.074 20.1213 164.546 19.7746 163.906 19.5186C163.277 19.252 162.53 19.1186 161.666 19.1186H159.426V28.3346ZM158.274 18.0626H162.034C162.738 18.0626 163.442 18.18 164.146 18.4146C164.861 18.6493 165.501 19.0066 166.066 19.4866C166.642 19.956 167.106 20.548 167.458 21.2626C167.81 21.9666 167.986 22.788 167.986 23.7266C167.986 24.676 167.81 25.5026 167.458 26.2066C167.106 26.9106 166.642 27.5026 166.066 27.9826C165.501 28.452 164.861 28.804 164.146 29.0386C163.442 29.2733 162.738 29.3906 162.034 29.3906H158.274V18.0626ZM171.446 19.0226C171.446 19.2466 171.366 19.4333 171.206 19.5826C171.046 19.7213 170.87 19.7906 170.678 19.7906C170.486 19.7906 170.31 19.7213 170.15 19.5826C169.99 19.4333 169.91 19.2466 169.91 19.0226C169.91 18.7986 169.99 18.6173 170.15 18.4786C170.31 18.3293 170.486 18.2546 170.678 18.2546C170.87 18.2546 171.046 18.3293 171.206 18.4786C171.366 18.6173 171.446 18.7986 171.446 19.0226ZM171.206 29.3906H170.15V21.9026H171.206V29.3906ZM177.722 23.6786C177.562 23.3693 177.348 23.124 177.082 22.9426C176.815 22.7613 176.49 22.6706 176.106 22.6706C175.924 22.6706 175.738 22.692 175.546 22.7346C175.364 22.7773 175.199 22.8466 175.05 22.9426C174.9 23.028 174.778 23.14 174.682 23.2786C174.596 23.4173 174.554 23.588 174.554 23.7906C174.554 24.1426 174.676 24.3986 174.922 24.5586C175.167 24.7186 175.535 24.8573 176.026 24.9746L177.098 25.2306C177.62 25.348 178.052 25.588 178.394 25.9506C178.746 26.3026 178.922 26.7453 178.922 27.2786C178.922 27.684 178.836 28.036 178.666 28.3346C178.506 28.6226 178.287 28.8626 178.01 29.0546C177.743 29.236 177.434 29.3693 177.082 29.4546C176.73 29.54 176.372 29.5826 176.01 29.5826C175.434 29.5826 174.895 29.476 174.394 29.2626C173.903 29.0386 173.482 28.66 173.13 28.1266L174.042 27.5026C174.255 27.844 174.522 28.116 174.842 28.3186C175.172 28.5213 175.562 28.6226 176.01 28.6226C176.223 28.6226 176.436 28.6013 176.65 28.5586C176.863 28.5053 177.05 28.4306 177.21 28.3346C177.38 28.228 177.514 28.0946 177.61 27.9346C177.716 27.7746 177.77 27.588 177.77 27.3746C177.77 27.0013 177.631 26.7346 177.354 26.5746C177.076 26.404 176.74 26.2706 176.346 26.1746L175.322 25.9346C175.194 25.9026 175.018 25.8493 174.794 25.7746C174.58 25.7 174.367 25.588 174.154 25.4386C173.951 25.2893 173.775 25.0973 173.626 24.8626C173.476 24.6173 173.402 24.3186 173.402 23.9666C173.402 23.5826 173.476 23.2466 173.626 22.9586C173.786 22.6706 173.994 22.436 174.25 22.2546C174.516 22.0733 174.815 21.94 175.146 21.8546C175.476 21.7586 175.818 21.7106 176.17 21.7106C176.692 21.7106 177.178 21.812 177.626 22.0146C178.074 22.2173 178.42 22.564 178.666 23.0546L177.722 23.6786ZM181.574 21.9026C181.595 22.1053 181.606 22.308 181.606 22.5106C181.617 22.7026 181.622 22.9 181.622 23.1026H181.654C181.771 22.9 181.921 22.7133 182.102 22.5426C182.283 22.372 182.486 22.228 182.71 22.1106C182.934 21.9826 183.169 21.8866 183.414 21.8226C183.67 21.748 183.921 21.7106 184.166 21.7106C185.126 21.7106 185.835 21.9666 186.294 22.4786C186.753 22.98 186.982 23.7 186.982 24.6386V29.3906H185.926V25.2466C185.926 24.4146 185.782 23.78 185.494 23.3426C185.206 22.8946 184.673 22.6706 183.894 22.6706C183.841 22.6706 183.691 22.692 183.446 22.7346C183.201 22.7773 182.939 22.8946 182.662 23.0866C182.395 23.2786 182.155 23.5666 181.942 23.9506C181.729 24.3346 181.622 24.868 181.622 25.5506V29.3906H180.566V23.5506C180.566 23.348 180.555 23.092 180.534 22.7826C180.523 22.4733 180.507 22.18 180.486 21.9026H181.574ZM195.281 25.0706C195.281 24.356 195.067 23.78 194.641 23.3426C194.214 22.8946 193.617 22.6706 192.849 22.6706C192.507 22.6706 192.177 22.74 191.857 22.8786C191.537 23.0066 191.254 23.1826 191.009 23.4066C190.774 23.6306 190.582 23.8866 190.433 24.1746C190.294 24.4626 190.225 24.7613 190.225 25.0706H195.281ZM190.193 25.9346C190.225 26.308 190.315 26.66 190.465 26.9906C190.614 27.3213 190.811 27.6093 191.057 27.8546C191.302 28.0893 191.585 28.276 191.905 28.4146C192.225 28.5533 192.571 28.6226 192.945 28.6226C193.51 28.6226 193.995 28.4946 194.401 28.2386C194.817 27.972 195.131 27.668 195.345 27.3266L196.161 27.9986C195.713 28.564 195.217 28.9693 194.673 29.2146C194.139 29.46 193.563 29.5826 192.945 29.5826C192.39 29.5826 191.873 29.4866 191.393 29.2946C190.923 29.092 190.518 28.8146 190.177 28.4626C189.835 28.1106 189.563 27.6946 189.361 27.2146C189.169 26.7346 189.073 26.212 189.073 25.6466C189.073 25.0813 189.169 24.5586 189.361 24.0786C189.553 23.5986 189.819 23.1826 190.161 22.8306C190.502 22.4786 190.902 22.2066 191.361 22.0146C191.819 21.812 192.315 21.7106 192.849 21.7106C193.414 21.7106 193.921 21.812 194.369 22.0146C194.817 22.2173 195.19 22.4893 195.489 22.8306C195.798 23.1613 196.033 23.556 196.193 24.0146C196.353 24.4626 196.433 24.9426 196.433 25.4546V25.9346H190.193ZM201.131 28.0946L203.419 21.9026H204.699L200.955 31.3426C200.731 31.9186 200.443 32.3773 200.091 32.7186C199.75 33.06 199.254 33.2306 198.603 33.2306C198.443 33.2306 198.278 33.2253 198.107 33.2146C197.947 33.204 197.787 33.172 197.627 33.1186L197.739 32.0946C197.963 32.212 198.23 32.2706 198.539 32.2706C198.913 32.2706 199.206 32.1533 199.419 31.9186C199.633 31.684 199.819 31.3533 199.979 30.9266L200.523 29.4866L197.451 21.9026H198.779L201.131 28.0946ZM210.722 24.0626H214.322V25.0226H210.722V28.6226H209.762V25.0226H206.162V24.0626H209.762V20.4626H210.722V24.0626Z" fill="#F9F9F9"/>
</svg>
